<?xml version="1.0" encoding="UTF-8" standalone="no"?>
<!DOCTYPE svg PUBLIC "-//W3C//DTD SVG 1.1//EN"
 "http://www.w3.org/Graphics/SVG/1.1/DTD/svg11.dtd">
<!-- Generated by graphviz version 2.40.1 (20161225.0304)
 -->
<!-- Pages: 1 -->
<svg width="2325pt" height="2221pt"
 viewBox="0.00 0.00 558.00 533.04" xmlns="http://www.w3.org/2000/svg" xmlns:xlink="http://www.w3.org/1999/xlink">
<g id="graph0" class="graph" transform="scale(4.0931 4.0931) rotate(0) translate(72 470.62)">
<polygon fill="#ffffff" stroke="transparent" points="-72,72 -72,-470.62 496.03,-470.62 496.03,72 -72,72"/>
<!-- 0 -->
<g id="node1" class="node">
<title>0</title>
<polygon fill="#00ff00" stroke="#000000" points="230.24,-211.56 194.24,-211.56 194.24,-175.56 230.24,-175.56 230.24,-211.56"/>
<text text-anchor="middle" x="212.24" y="-188.96" font-family="Times,serif" font-size="14.00" fill="#000000">1</text>
</g>
<!-- 1 -->
<g id="node2" class="node">
<title>1</title>
<polygon fill="#00ff00" stroke="#000000" points="226.53,-398.62 190.53,-398.62 190.53,-362.62 226.53,-362.62 226.53,-398.62"/>
<text text-anchor="middle" x="208.53" y="-376.02" font-family="Times,serif" font-size="14.00" fill="#000000">2</text>
</g>
<!-- 0&#45;&#45;1 -->
<g id="edge1" class="edge">
<title>0&#45;&#45;1</title>
<path fill="none" stroke="#000000" stroke-width="3.5" d="M211.88,-211.84C211.17,-247.69 209.6,-326.85 208.89,-362.54"/>
</g>
<!-- 2 -->
<g id="node3" class="node">
<title>2</title>
<polygon fill="#00ff00" stroke="#000000" points="70.106,-114.814 34.106,-114.814 34.106,-78.814 70.106,-78.814 70.106,-114.814"/>
<text text-anchor="middle" x="52.106" y="-92.214" font-family="Times,serif" font-size="14.00" fill="#000000">3</text>
</g>
<!-- 0&#45;&#45;2 -->
<g id="edge2" class="edge">
<title>0&#45;&#45;2</title>
<path fill="none" stroke="#000000" stroke-width="3.5" d="M194.19,-182.65C163.43,-164.07 101.22,-126.49 70.345,-107.83"/>
</g>
<!-- 3 -->
<g id="node4" class="node">
<title>3</title>
<polygon fill="#00ff00" stroke="#000000" points="394.1,-121.25 358.1,-121.25 358.1,-85.25 394.1,-85.25 394.1,-121.25"/>
<text text-anchor="middle" x="376.1" y="-98.65" font-family="Times,serif" font-size="14.00" fill="#000000">4</text>
</g>
<!-- 0&#45;&#45;3 -->
<g id="edge3" class="edge">
<title>0&#45;&#45;3</title>
<path fill="none" stroke="#000000" stroke-width="3.5" d="M230.41,-183.55C261.9,-166.19 326.3,-130.7 357.86,-113.31"/>
</g>
<!-- 4 -->
<g id="node5" class="node">
<title>4</title>
<ellipse fill="#ff0000" stroke="#000000" cx="316.1" cy="-357.9" rx="18" ry="18"/>
<text text-anchor="middle" x="316.1" y="-353.3" font-family="Times,serif" font-size="14.00" fill="#000000">5</text>
</g>
<!-- 1&#45;&#45;4 -->
<g id="edge4" class="edge">
<title>1&#45;&#45;4</title>
<path fill="none" stroke="#000000" stroke-width="3.5" d="M226.78,-376.77C246.8,-372.54 278.71,-365.8 298.48,-361.62"/>
</g>
<!-- 5 -->
<g id="node6" class="node">
<title>5</title>
<ellipse fill="#ff0000" stroke="#000000" cx="101.95" cy="-353.65" rx="18" ry="18"/>
<text text-anchor="middle" x="101.95" y="-349.05" font-family="Times,serif" font-size="14.00" fill="#000000">6</text>
</g>
<!-- 1&#45;&#45;5 -->
<g id="edge5" class="edge">
<title>1&#45;&#45;5</title>
<path fill="none" stroke="#000000" stroke-width="3.5" d="M190.45,-376.04C170.61,-371.02 138.99,-363.02 119.41,-358.06"/>
</g>
<!-- 6 -->
<g id="node7" class="node">
<title>6</title>
<ellipse fill="#ff0000" stroke="#000000" cx="18" cy="-201.33" rx="18" ry="18"/>
<text text-anchor="middle" x="18" y="-196.73" font-family="Times,serif" font-size="14.00" fill="#000000">7</text>
</g>
<!-- 2&#45;&#45;6 -->
<g id="edge6" class="edge">
<title>2&#45;&#45;6</title>
<path fill="none" stroke="#000000" stroke-width="3.5" d="M46.165,-115.02C39.829,-134.44 29.867,-164.97 23.646,-184.03"/>
</g>
<!-- 7 -->
<g id="node8" class="node">
<title>7</title>
<ellipse fill="#ff0000" stroke="#000000" cx="128.76" cy="-18" rx="18" ry="18"/>
<text text-anchor="middle" x="128.76" y="-13.4" font-family="Times,serif" font-size="14.00" fill="#000000">8</text>
</g>
<!-- 2&#45;&#45;7 -->
<g id="edge7" class="edge">
<title>2&#45;&#45;7</title>
<path fill="none" stroke="#000000" stroke-width="3.5" d="M69.885,-78.534C84.038,-63.983 103.5,-43.974 116.1,-31.015"/>
</g>
<!-- 8 -->
<g id="node9" class="node">
<title>8</title>
<ellipse fill="#ff0000" stroke="#000000" cx="302.64" cy="-21.452" rx="18" ry="18"/>
<text text-anchor="middle" x="302.64" y="-16.852" font-family="Times,serif" font-size="14.00" fill="#000000">9</text>
</g>
<!-- 3&#45;&#45;8 -->
<g id="edge8" class="edge">
<title>3&#45;&#45;8</title>
<path fill="none" stroke="#000000" stroke-width="3.5" d="M359.8,-85.099C346.19,-69.943 327.09,-48.677 314.79,-34.98"/>
</g>
<!-- 9 -->
<g id="node10" class="node">
<title>9</title>
<ellipse fill="#ff0000" stroke="#000000" cx="406.03" cy="-209.04" rx="18" ry="18"/>
<text text-anchor="middle" x="406.03" y="-204.44" font-family="Times,serif" font-size="14.00" fill="#000000">10</text>
</g>
<!-- 3&#45;&#45;9 -->
<g id="edge9" class="edge">
<title>3&#45;&#45;9</title>
<path fill="none" stroke="#000000" stroke-width="3.5" d="M381.31,-121.68C386.87,-141.33 395.62,-172.23 401.08,-191.53"/>
</g>
<!-- 4&#45;&#45;5 -->
<g id="edge10" class="edge">
<title>4&#45;&#45;5</title>
<path fill="none" stroke="#000000" stroke-width="3.5" d="M297.84,-357.54C257.38,-356.73 160.58,-354.81 120.16,-354.01"/>
</g>
<!-- 4&#45;&#45;9 -->
<g id="edge11" class="edge">
<title>4&#45;&#45;9</title>
<path fill="none" stroke="#000000" stroke-width="3.5" d="M325.55,-342.25C342.87,-313.59 379.48,-252.99 396.7,-224.48"/>
</g>
<!-- 5&#45;&#45;6 -->
<g id="edge12" class="edge">
<title>5&#45;&#45;6</title>
<path fill="none" stroke="#000000" stroke-width="3.5" d="M93.122,-337.63C76.957,-308.3 42.783,-246.3 26.707,-217.13"/>
</g>
<!-- 6&#45;&#45;7 -->
<g id="edge13" class="edge">
<title>6&#45;&#45;7</title>
<path fill="none" stroke="#000000" stroke-width="3.5" d="M27.443,-185.7C48.369,-151.07 98.438,-68.192 119.34,-33.591"/>
</g>
<!-- 7&#45;&#45;8 -->
<g id="edge14" class="edge">
<title>7&#45;&#45;8</title>
<path fill="none" stroke="#000000" stroke-width="3.5" d="M147.04,-18.363C180.52,-19.028 251.31,-20.433 284.61,-21.094"/>
</g>
<!-- 8&#45;&#45;9 -->
<g id="edge15" class="edge">
<title>8&#45;&#45;9</title>
<path fill="none" stroke="#000000" stroke-width="3.5" d="M311.46,-37.446C330.99,-72.887 377.73,-157.69 397.24,-193.09"/>
</g>
</g>
</svg>
